<svg xmlns="http://www.w3.org/2000/svg" viewBox="0 0 722 234"><defs><style>.a{fill:#fff;}</style></defs><path class="a" d="M22.46,73.12H44.15V34H72.91v39.1h26V94.56h-26v69.63a69.83,69.83,0,0,0,.38,7.82,13.5,13.5,0,0,0,1.76,5.55A8.43,8.43,0,0,0,79.22,181a20.42,20.42,0,0,0,7.57,1.13q3,0,6-.12a30,30,0,0,0,6-.89v22.2c-3.19.34-6.3.67-9.33,1a83.63,83.63,0,0,1-9.33.51q-11.36,0-18.29-2.15a24.31,24.31,0,0,1-10.85-6.3,21.74,21.74,0,0,1-5.3-10.47,78.48,78.48,0,0,1-1.64-14.38V94.56H22.46Z"/><path class="a" d="M179.37,207.08a71.19,71.19,0,0,1-27.88-5.17,59.33,59.33,0,0,1-20.68-14.26A60.77,60.77,0,0,1,117.94,166a83.6,83.6,0,0,1-4.42-27.75,82.82,82.82,0,0,1,4.42-27.5A60.9,60.9,0,0,1,130.81,89a59.44,59.44,0,0,1,20.68-14.25,71.19,71.19,0,0,1,27.88-5.17,71.17,71.17,0,0,1,27.87,5.17A59.57,59.57,0,0,1,227.93,89a61.19,61.19,0,0,1,12.87,21.7,82.82,82.82,0,0,1,4.41,27.5A83.6,83.6,0,0,1,240.8,166a61.06,61.06,0,0,1-12.87,21.69,59.46,59.46,0,0,1-20.69,14.26A71.17,71.17,0,0,1,179.37,207.08Zm0-22.71a33,33,0,0,0,16.65-4,35,35,0,0,0,11.6-10.6A46.14,46.14,0,0,0,214.31,155a66.31,66.31,0,0,0,0-33.42,44.62,44.62,0,0,0-6.69-14.76A35.62,35.62,0,0,0,196,96.33a36.33,36.33,0,0,0-33.3,0,35.65,35.65,0,0,0-11.61,10.47,44.6,44.6,0,0,0-6.68,14.76,66,66,0,0,0,0,33.42,46.13,46.13,0,0,0,6.68,14.76,35,35,0,0,0,11.61,10.6A33,33,0,0,0,179.37,184.37Z"/><path class="a" d="M329,207.08a71.1,71.1,0,0,1-27.87-5.17,59.37,59.37,0,0,1-20.69-14.26A60.91,60.91,0,0,1,267.53,166a83.6,83.6,0,0,1-4.41-27.75,82.82,82.82,0,0,1,4.41-27.5A61,61,0,0,1,280.4,89a59.48,59.48,0,0,1,20.69-14.25,77.73,77.73,0,0,1,55.75,0A59.57,59.57,0,0,1,377.53,89a61,61,0,0,1,12.86,21.7,82.82,82.82,0,0,1,4.42,27.5A83.6,83.6,0,0,1,390.39,166a60.89,60.89,0,0,1-12.86,21.69,59.46,59.46,0,0,1-20.69,14.26A71.19,71.19,0,0,1,329,207.08Zm0-22.71a33,33,0,0,0,16.65-4,35,35,0,0,0,11.61-10.6A46.13,46.13,0,0,0,363.9,155a66,66,0,0,0,0-33.42,44.6,44.6,0,0,0-6.68-14.76,35.65,35.65,0,0,0-11.61-10.47,36.33,36.33,0,0,0-33.3,0,35.62,35.62,0,0,0-11.6,10.47A44.62,44.62,0,0,0,294,121.56,66.31,66.31,0,0,0,294,155a46.14,46.14,0,0,0,6.69,14.76,35,35,0,0,0,11.6,10.6A33,33,0,0,0,329,184.37Z"/><path class="a" d="M541.63,203.55H514.38V185.89h-.5A34.17,34.17,0,0,1,497,202.16a57.25,57.25,0,0,1-23.46,4.92q-15.39,0-26.86-5.43a53.52,53.52,0,0,1-19-14.75,63,63,0,0,1-11.35-22.08,95.4,95.4,0,0,1-3.79-27.37q0-17.65,4.8-30.52A61.12,61.12,0,0,1,430,85.73,49.33,49.33,0,0,1,448.16,73.5,57.72,57.72,0,0,1,469,69.59a70.24,70.24,0,0,1,12.36,1.13,54.68,54.68,0,0,1,12.11,3.66,47.92,47.92,0,0,1,10.72,6.44,35.43,35.43,0,0,1,8.2,9.2h.51V23.42h28.76ZM441.22,139.72a63.6,63.6,0,0,0,2.15,16.4,44.59,44.59,0,0,0,6.56,14.38,31.85,31.85,0,0,0,27.37,13.87,32.3,32.3,0,0,0,16.52-4,34.2,34.2,0,0,0,11.35-10.6A47.94,47.94,0,0,0,511.73,155a65.92,65.92,0,0,0,2.15-16.77q0-21.69-9.72-33.81T477.8,92.29q-10.1,0-17,4.17a35,35,0,0,0-11.35,10.84,45.38,45.38,0,0,0-6.31,15.14A79,79,0,0,0,441.22,139.72Z"/><path class="a" d="M632.7,207.08a71.19,71.19,0,0,1-27.88-5.17,59.46,59.46,0,0,1-20.69-14.26A60.89,60.89,0,0,1,571.27,166a83.34,83.34,0,0,1-4.42-27.75,82.57,82.57,0,0,1,4.42-27.5A61,61,0,0,1,584.13,89a59.57,59.57,0,0,1,20.69-14.25,77.73,77.73,0,0,1,55.75,0A59.57,59.57,0,0,1,681.26,89a61,61,0,0,1,12.86,21.7,82.57,82.57,0,0,1,4.42,27.5A83.34,83.34,0,0,1,694.12,166a60.89,60.89,0,0,1-12.86,21.69,59.46,59.46,0,0,1-20.69,14.26A71.17,71.17,0,0,1,632.7,207.08Zm0-22.71a33,33,0,0,0,16.65-4,35.11,35.11,0,0,0,11.6-10.6A46.14,46.14,0,0,0,667.64,155a66.31,66.31,0,0,0,0-33.42A44.62,44.62,0,0,0,661,106.8a35.72,35.72,0,0,0-11.6-10.47,36.33,36.33,0,0,0-33.3,0,35.65,35.65,0,0,0-11.61,10.47,44.4,44.4,0,0,0-6.68,14.76,66,66,0,0,0,0,33.42,45.91,45.91,0,0,0,6.68,14.76,35,35,0,0,0,11.61,10.6A33,33,0,0,0,632.7,184.37Z"/></svg>