<?xml version="1.0" encoding="utf-8"?>
<!-- Generator: Adobe Illustrator 24.1.0, SVG Export Plug-In . SVG Version: 6.00 Build 0)  -->
<svg version="1.1" id="Layer_1" xmlns="http://www.w3.org/2000/svg" xmlns:xlink="http://www.w3.org/1999/xlink" x="0px" y="0px"
	 viewBox="0 0 596.5 203.3" style="enable-background:new 0 0 596.5 203.3;" xml:space="preserve">
<style type="text/css">
	.st0{fill:#FFFFFF;}
	.st1{fill:#FF9A0A;}
</style>
<g>
	<path class="st0" d="M77.8,95.1H55.1v91.5H35.9V95.1H13V77.7h22.8V38.6h19.2v39.1h22.7V95.1z"/>
	<path class="st0" d="M75.8,132.2c0-31.3,25.2-56.5,57-56.5c31.4,0,56.7,25.2,56.7,56.5c0,31.2-25.2,56.4-56.7,56.4
		C101.1,188.6,75.8,163.4,75.8,132.2z M170.5,132.2c0-21.1-16.8-38-37.7-38c-21.4,0-38,16.8-38,38c0,21,16.6,38,38,38
		C153.6,170.2,170.5,153.2,170.5,132.2z"/>
	<path class="st0" d="M194.9,132.2c0-31.3,25.2-56.5,57-56.5c31.4,0,56.7,25.2,56.7,56.5c0,31.2-25.2,56.4-56.7,56.4
		C220.1,188.6,194.9,163.4,194.9,132.2z M289.5,132.2c0-21.1-16.8-38-37.7-38c-21.4,0-38,16.8-38,38c0,21,16.6,38,38,38
		C272.7,170.2,289.5,153.2,289.5,132.2z"/>
	<path class="st0" d="M427.8,12.9v173.7h-19v-15.5c-9.3,10.9-23.1,17.5-40.3,17.5c-29.2,0-54.4-25.2-54.4-56.4
		c0-31.3,25.2-56.5,54.4-56.5c17.2,0,31,6.7,40.3,17.5V12.9H427.8z M408.8,132.2c0-21.1-16.6-38-37.7-38c-21.1,0-38,16.8-38,38
		c0,21,16.8,38,38,38C392.1,170.2,408.8,153.2,408.8,132.2z"/>
	<path class="st0" d="M444.2,132.2c0-31.3,25.2-56.5,57-56.5c31.4,0,56.7,25.2,56.7,56.5c0,31.2-25.2,56.4-56.7,56.4
		C469.4,188.6,444.2,163.4,444.2,132.2z M538.9,132.2c0-21.1-16.8-38-37.7-38c-21.4,0-38,16.8-38,38c0,21,16.6,38,38,38
		C522,170.2,538.9,153.2,538.9,132.2z"/>
</g>
<polygon class="st1" points="574.1,65.9 506.4,133.5 487.1,114.2 475.9,125.4 495.2,144.7 506.4,155.9 517.6,144.7 585.1,77.3 "/>
</svg>
